<?xml version="1.0" encoding="UTF-8"?>
<svg id="Layer_1" data-name="Layer 1" xmlns="http://www.w3.org/2000/svg" xmlns:xlink="http://www.w3.org/1999/xlink" viewBox="0 0 1067.4 946.47">
  <defs>
    <style>
      .cls-1 {
        fill: url(#linear-gradient);
        stroke-width: 0px;
      }
    </style>
    <linearGradient id="linear-gradient" x1="307.3" y1="-42.66" x2="925.28" y2="1027.72" gradientUnits="userSpaceOnUse">
      <stop offset="0" stop-color="#eb4760"/>
      <stop offset="1" stop-color="#2b3568"/>
    </linearGradient>
  </defs>
  <path class="cls-1" d="M237.04.42l685.57-.42v365.34c0,13.37-4.13,26.42-11.82,37.36l-74.18,105.46-233.35-151.44c-11.31-7.34-14.5-22.48-7.12-33.77l92.28-140.93c14.98-22.87,6.9-53.68-17.37-66.26h0c-21.98-11.4-49.01-4.49-62.83,16.05l-105.62,157c-10.23,15.21-5.94,35.69,9.52,45.52l380.37,241.73c18.75,11.92,30.11,32.59,30.11,54.8v84.53c-51.92-30.97-103.85-61.94-155.77-92.91-63.09,107.99-126.18,215.99-189.28,323.98h-318.83c-24.11,0-33.41-16.75-20.67-37.22l260.36-418.38c9.4-15.11,4.89-34.97-10.11-44.53l-28.22-17.99c-15.21-9.69-35.4-5.14-44.97,10.14l-165,263.43H26.61c-24.67,0-33.86-16.93-20.42-37.61,97.9-150.72,195.79-301.43,293.69-452.15,9.87-15.2,5.39-35.53-9.95-45.17-22.94-14.42-45.87-28.84-68.81-43.25l-.3-107.04c-.03-8.98,7.24-16.27,16.22-16.28ZM1051.4,0h-95.47v704.4c0,55.23,44.77,100,100,100h11.47V16C1067.4,7.16,1060.24,0,1051.4,0ZM1067.4,856.55c-10,1.35-33.03,3.04-57.87-8.75-37.9-17.97-51.06-53.56-53.6-60.9v143.33c.19,1.65.93,6.21,4.62,10.29,4.46,4.93,10.13,5.77,11.61,5.94l95.23-.8v-89.11Z"/>
</svg>